<svg width="34" height="34" viewBox="0 0 34 34" fill="none" xmlns="http://www.w3.org/2000/svg">
<rect width="34" height="34" rx="14" fill="#202020"/>
<rect x="14" y="7" width="6" height="1" fill="white"/>
<rect width="6" height="1" transform="matrix(1 7.43331e-09 2.17178e-08 -1 14 27)" fill="white"/>
<rect x="8" y="14" width="6" height="1" transform="rotate(90 8 14)" fill="white"/>
<rect width="6" height="1" transform="matrix(2.20092e-08 1 1 -3.6293e-08 26 14)" fill="white"/>
<rect width="1" height="2" transform="matrix(2.03241e-08 1 1 -3.7978e-08 11 9)" fill="white"/>
<rect width="1" height="1" transform="matrix(2.03241e-08 1 1 -3.7978e-08 15 9)" fill="white"/>
<rect width="1" height="1" transform="matrix(2.03241e-08 1 1 -3.7978e-08 16 8)" fill="white"/>
<rect width="1" height="1" transform="matrix(2.03241e-08 1 1 -3.7978e-08 14 10)" fill="white"/>
<rect width="1" height="1" transform="matrix(2.03241e-08 1 1 -3.7978e-08 13 11)" fill="white"/>
<rect width="1" height="1" transform="matrix(2.03241e-08 1 1 -3.7978e-08 12 12)" fill="white"/>
<rect x="13" y="21" width="1" height="1" transform="rotate(90 13 21)" fill="white"/>
<rect x="14" y="22" width="1" height="1" transform="rotate(90 14 22)" fill="white"/>
<rect x="15" y="23" width="1" height="1" transform="rotate(90 15 23)" fill="white"/>
<rect x="16" y="24" width="1" height="1" transform="rotate(90 16 24)" fill="white"/>
<rect x="17" y="25" width="1" height="1" transform="rotate(90 17 25)" fill="white"/>
<rect x="14" y="25" width="1" height="1" transform="rotate(90 14 25)" fill="white"/>
<rect width="1" height="1" transform="matrix(2.03241e-08 1 1 -3.7978e-08 21 21)" fill="white"/>
<rect width="1" height="1" transform="matrix(2.03241e-08 1 1 -3.7978e-08 20 22)" fill="white"/>
<rect width="1" height="1" transform="matrix(2.03241e-08 1 1 -3.7978e-08 19 23)" fill="white"/>
<rect width="1" height="1" transform="matrix(2.03241e-08 1 1 -3.7978e-08 18 24)" fill="white"/>
<rect width="1" height="1" transform="matrix(2.03241e-08 1 1 -3.7978e-08 17 25)" fill="white"/>
<rect width="1" height="1" transform="matrix(2.03241e-08 1 1 -3.7978e-08 20 25)" fill="white"/>
<rect width="6" height="1" transform="matrix(2.03241e-08 1 1 -3.7978e-08 12 14)" fill="white"/>
<rect x="19" y="9" width="1" height="1" transform="rotate(90 19 9)" fill="white"/>
<rect x="18" y="8" width="1" height="1" transform="rotate(90 18 8)" fill="white"/>
<rect x="20" y="10" width="1" height="1" transform="rotate(90 20 10)" fill="white"/>
<rect x="21" y="11" width="1" height="1" transform="rotate(90 21 11)" fill="white"/>
<rect x="22" y="12" width="1" height="1" transform="rotate(90 22 12)" fill="white"/>
<rect x="22" y="14" width="6" height="1" transform="rotate(90 22 14)" fill="white"/>
<rect x="11" y="25" width="1" height="2" transform="rotate(-90 11 25)" fill="white"/>
<rect x="23" y="9" width="1" height="2" transform="rotate(90 23 9)" fill="white"/>
<rect width="1" height="2" transform="matrix(-2.03241e-08 -1 -1 3.7978e-08 23 25)" fill="white"/>
<rect width="1" height="3" transform="matrix(-1 -9.32006e-08 -1.10857e-07 1 10 11)" fill="white"/>
<rect width="1" height="18" transform="matrix(-4.37114e-08 -1 -1 2.6055e-08 26 14)" fill="white"/>
<rect width="1" height="18" transform="matrix(-4.37114e-08 -1 -1 2.6055e-08 26 21)" fill="white"/>
<rect x="10" y="23" width="1" height="3" transform="rotate(180 10 23)" fill="white"/>
<rect x="24" y="11" width="1" height="3" fill="white"/>
<rect width="1" height="3" transform="matrix(1 9.32006e-08 1.10857e-07 -1 24 23)" fill="white"/>
<rect width="1" height="1" transform="matrix(1.9686e-08 1 1 -3.86161e-08 10 10)" fill="white"/>
<rect width="1" height="1" transform="matrix(1.9686e-08 1 1 -3.86161e-08 13 8)" fill="white"/>
<rect x="10" y="24" width="1" height="1" transform="rotate(-90 10 24)" fill="white"/>
<rect x="24" y="10" width="1" height="1" transform="rotate(90 24 10)" fill="white"/>
<rect x="21" y="8" width="1" height="1" transform="rotate(90 21 8)" fill="white"/>
<rect width="1" height="1" transform="matrix(-1.9686e-08 -1 -1 3.86161e-08 24 24)" fill="white"/>
</svg>
