<svg width="34" height="34" viewBox="0 0 34 34" fill="none" xmlns="http://www.w3.org/2000/svg">
<rect width="34" height="34" rx="14" fill="#202020"/>
<rect x="10" y="8" width="14" height="1" fill="white"/>
<rect x="10" y="19" width="14" height="1" fill="white"/>
<rect width="2" height="4" transform="matrix(1 0 0 -1 8 14)" fill="white"/>
<rect width="1" height="4" transform="matrix(1 0 0 -1 10 20)" fill="white"/>
<rect width="2" height="4" transform="matrix(1 0 0 -1 11 20)" fill="white"/>
<rect width="1" height="4" transform="matrix(1 0 0 -1 23 20)" fill="white"/>
<rect width="2" height="4" transform="matrix(1 0 0 -1 21 20)" fill="white"/>
<rect width="2" height="4" transform="matrix(1 0 0 -1 8 25)" fill="white"/>
<rect width="1" height="1" transform="matrix(1 0 0 -1 9 21)" fill="white"/>
<rect width="1" height="1" transform="matrix(1 0 0 -1 9 26)" fill="white"/>
<rect width="1" height="1" transform="matrix(1 0 0 -1 24 26)" fill="white"/>
<rect width="1" height="1" transform="matrix(1 0 0 -1 24 21)" fill="white"/>
<rect width="1" height="1" transform="matrix(1 0 0 -1 24 15)" fill="white"/>
<rect width="1" height="1" transform="matrix(1 0 0 -1 24 10)" fill="white"/>
<rect width="1" height="1" transform="matrix(1 0 0 -1 9 10)" fill="white"/>
<rect width="1" height="1" transform="matrix(1 0 0 -1 10 10)" fill="white"/>
<rect width="1" height="1" transform="matrix(1 0 0 -1 23 10)" fill="white"/>
<rect width="1" height="1" transform="matrix(1 0 0 -1 21 11)" fill="white"/>
<rect width="1" height="1" transform="matrix(1 0 0 -1 21 22)" fill="white"/>
<rect width="1" height="1" transform="matrix(1 0 0 -1 21 13)" fill="white"/>
<rect width="1" height="1" transform="matrix(1 0 0 -1 21 24)" fill="white"/>
<rect width="6" height="1" transform="matrix(1 0 0 -1 14 11)" fill="white"/>
<rect width="6" height="1" transform="matrix(1 0 0 -1 14 22)" fill="white"/>
<rect width="6" height="1" transform="matrix(1 0 0 -1 14 13)" fill="white"/>
<rect width="6" height="1" transform="matrix(1 0 0 -1 14 24)" fill="white"/>
<rect width="1" height="1" transform="matrix(1 0 0 -1 23 15)" fill="white"/>
<rect width="1" height="1" transform="matrix(1 0 0 -1 10 15)" fill="white"/>
<rect width="1" height="1" transform="matrix(1 0 0 -1 10 21)" fill="white"/>
<rect width="1" height="1" transform="matrix(1 0 0 -1 10 26)" fill="white"/>
<rect width="1" height="1" transform="matrix(1 0 0 -1 23 26)" fill="white"/>
<rect width="1" height="1" transform="matrix(1 0 0 -1 23 21)" fill="white"/>
<rect width="1" height="1" transform="matrix(1 0 0 -1 9 15)" fill="white"/>
<rect width="2" height="4" transform="matrix(1 0 0 -1 24 14)" fill="white"/>
<rect width="2" height="4" transform="matrix(1 0 0 -1 24 25)" fill="white"/>
<rect x="10" y="15" width="14" height="1" fill="white"/>
<rect x="10" y="26" width="14" height="1" fill="white"/>
</svg>
