<svg width="32" height="32" viewBox="0 0 32 32" fill="none" xmlns="http://www.w3.org/2000/svg">
<rect width="2.66667" height="21.3333" transform="matrix(-4.37114e-08 -1 -1 1.45603e-08 26.6667 2.66663)" fill="#7B7B7B"/>
<rect width="2.66667" height="21.3333" transform="matrix(-4.37114e-08 -1 -1 1.45603e-08 26.6667 32)" fill="#7B7B7B"/>
<rect width="26.6667" height="26.6667" transform="matrix(1 0 2.91511e-08 -1 2.66666 29.3334)" fill="#7B7B7B"/>
<rect x="2.66666" y="25.3334" width="2.66667" height="20" transform="rotate(-180 2.66666 25.3334)" fill="#7B7B7B"/>
<rect x="32" y="25.3334" width="2.66667" height="20" transform="rotate(-180 32 25.3334)" fill="#7B7B7B"/>
<rect width="2" height="2" transform="matrix(1 0 0 -1 15 17)" fill="white"/>
<rect width="2" height="6" transform="matrix(1 0 0 -1 15 28)" fill="white"/>
<rect x="17" y="10" width="2" height="6" transform="rotate(180 17 10)" fill="white"/>
<rect x="28" y="17" width="6" height="2" transform="rotate(180 28 17)" fill="white"/>
<rect x="10" y="17" width="6" height="2" transform="rotate(180 10 17)" fill="white"/>
</svg>
