<svg width="30" height="30" viewBox="0 0 30 30" fill="none" xmlns="http://www.w3.org/2000/svg">
<g clip-path="url(#clip0_697_7318)">
<rect x="8.58588" y="3.5675" width="7.11109" height="1.77776" transform="rotate(-12 8.58588 3.5675)" fill="#555555"/>
<rect width="7.11109" height="1.77776" transform="matrix(0.978148 -0.207912 -0.207912 -0.978148 13.6681 27.4777)" fill="#555555"/>
<rect x="3.64954" y="13.4774" width="7.11102" height="1.77777" transform="rotate(78 3.64954 13.4774)" fill="#555555"/>
<rect width="7.11103" height="1.77777" transform="matrix(0.207912 0.978148 0.978148 -0.207912 24.0818 9.13422)" fill="#555555"/>
<rect width="1.77776" height="3.55554" transform="matrix(0.207912 0.978148 0.978148 -0.207912 5.47754 6.04553)" fill="#555555"/>
<rect x="9.82068" y="26.4776" width="1.77776" height="3.55554" transform="rotate(-102 9.82068 26.4776)" fill="#555555"/>
<rect x="19.3893" y="3.08844" width="1.77776" height="3.55554" transform="rotate(78 19.3893 3.08844)" fill="#555555"/>
<rect width="1.77776" height="3.55554" transform="matrix(-0.207912 -0.978148 -0.978148 0.207912 23.732 23.5208)" fill="#555555"/>
<rect width="1.77777" height="3.55551" transform="matrix(-0.978148 0.207912 0.207912 0.978148 4.64929 9.62988)" fill="#555555"/>
<rect x="7.60608" y="23.5411" width="1.77777" height="3.55551" transform="rotate(168 7.60608 23.5411)" fill="#555555"/>
<rect x="21.6035" y="6.02631" width="1.77777" height="3.55551" transform="rotate(-12 21.6035 6.02631)" fill="#555555"/>
<rect width="1.77777" height="3.55551" transform="matrix(0.978148 -0.207912 -0.207912 -0.978148 24.5606 19.9373)" fill="#555555"/>
<rect width="1.55554" height="1.55555" transform="matrix(0.207912 0.978148 0.978148 -0.207912 4.3255 8.10809)" fill="#555555"/>
<rect width="1.77776" height="1.77777" transform="matrix(0.207912 0.978148 0.978148 -0.207912 4.20392 16.0856)" fill="#555555"/>
<rect width="1.77776" height="1.77777" transform="matrix(0.207912 0.978148 0.978148 -0.207912 26.3753 11.373)" fill="#555555"/>
<rect width="1.77776" height="1.77777" transform="matrix(0.207912 0.978148 0.978148 -0.207912 15.2896 13.729)" fill="#555555"/>
<rect width="1.77777" height="1.77776" transform="matrix(-0.978148 0.207912 0.207912 0.978148 13.3027 4.38257)" fill="#555555"/>
<rect width="1.77777" height="1.77776" transform="matrix(-0.978148 0.207912 0.207912 0.978148 18.0153 26.5538)" fill="#555555"/>
<rect width="1.77776" height="1.77777" transform="matrix(0.207912 0.978148 0.978148 -0.207912 0.726013 16.8249)" fill="#555555"/>
<rect width="1.77776" height="1.77777" transform="matrix(0.207912 0.978148 0.978148 -0.207912 22.8971 12.1118)" fill="#555555"/>
<rect width="1.77776" height="1.77777" transform="matrix(0.207912 0.978148 0.978148 -0.207912 11.8116 14.4686)" fill="#555555"/>
<rect width="1.77777" height="1.77776" transform="matrix(-0.978148 0.207912 0.207912 0.978148 15.6591 15.4682)" fill="#555555"/>
<rect width="1.77777" height="1.77776" transform="matrix(-0.978148 0.207912 0.207912 0.978148 14.92 11.9906)" fill="#555555"/>
<rect width="1.77777" height="1.77776" transform="matrix(-0.978148 0.207912 0.207912 0.978148 12.5636 0.904419)" fill="#555555"/>
<rect width="1.77777" height="1.77776" transform="matrix(-0.978148 0.207912 0.207912 0.978148 17.276 23.076)" fill="#555555"/>
<rect x="7.92944" y="25.0623" width="1.55554" height="1.55555" transform="rotate(-102 7.92944 25.0623)" fill="#555555"/>
<rect x="21.2802" y="4.50403" width="1.55554" height="1.55555" transform="rotate(78 21.2802 4.50403)" fill="#555555"/>
<rect width="1.55554" height="1.55555" transform="matrix(-0.207912 -0.978148 -0.978148 0.207912 24.884 21.4587)" fill="#555555"/>
</g>
<defs>
<clipPath id="clip0_697_7318">
<rect width="30" height="30" fill="white"/>
</clipPath>
</defs>
</svg>
