<svg width="34" height="34" viewBox="0 0 34 34" fill="none" xmlns="http://www.w3.org/2000/svg">
<rect width="34" height="34" rx="14" fill="#202020"/>
<rect x="7" y="20" width="2" height="2" fill="white"/>
<rect x="25" y="20" width="2" height="2" fill="white"/>
<rect x="9" y="22" width="16" height="2" fill="white"/>
<rect x="6" y="18" width="1" height="2" fill="white"/>
<rect x="11" y="16" width="1" height="1" fill="white"/>
<rect x="12" y="15" width="1" height="1" fill="white"/>
<rect width="1" height="1" transform="matrix(-1 0 0 1 20 18)" fill="white"/>
<rect x="13" y="21" width="1" height="1" fill="white"/>
<rect x="13" y="14" width="1" height="1" fill="white"/>
<rect width="1" height="1" transform="matrix(-1 0 0 1 19 17)" fill="white"/>
<rect x="19" y="14" width="1" height="1" fill="white"/>
<rect x="14" y="20" width="1" height="1" fill="white"/>
<rect x="15" y="19" width="2" height="1" fill="white"/>
<rect x="15" y="16" width="3" height="1" fill="white"/>
<rect x="14" y="13" width="2" height="1" fill="white"/>
<rect x="7" y="14" width="2" height="4" fill="white"/>
<rect x="9" y="12" width="2" height="2" fill="white"/>
<rect width="1" height="2" transform="matrix(-1 0 0 1 28 18)" fill="white"/>
<rect width="2" height="4" transform="matrix(-1 0 0 1 27 14)" fill="white"/>
<rect width="2" height="2" transform="matrix(-1 0 0 1 25 12)" fill="white"/>
<rect x="11" y="10" width="12" height="2" fill="white"/>
<path d="M20.5 19V22" stroke="white"/>
<path d="M8.5 16.5H11.5" stroke="white"/>
<path d="M20.5 11.5V14" stroke="white"/>
<path d="M23 23V18" stroke="white"/>
</svg>
